<svg width="512" height="512" viewBox="0 0 512 512" fill="none" xmlns="http://www.w3.org/2000/svg">
  <defs>
    <linearGradient id="ember-bg" x1="96" y1="72" x2="432" y2="456" gradientUnits="userSpaceOnUse">
      <stop stop-color="#23151A"/>
      <stop offset="1" stop-color="#120E12"/>
    </linearGradient>
    <radialGradient id="ember-glow" cx="0" cy="0" r="1" gradientUnits="userSpaceOnUse" gradientTransform="translate(256 300) rotate(90) scale(164 180)">
      <stop stop-color="#FFB66D" stop-opacity="0.9"/>
      <stop offset="0.56" stop-color="#FF6A3D" stop-opacity="0.52"/>
      <stop offset="1" stop-color="#FF6A3D" stop-opacity="0"/>
    </radialGradient>
    <linearGradient id="chamber-stroke" x1="138" y1="100" x2="380" y2="422" gradientUnits="userSpaceOnUse">
      <stop stop-color="#FFD08B"/>
      <stop offset="0.48" stop-color="#FF7C47"/>
      <stop offset="1" stop-color="#B23A2A"/>
    </linearGradient>
    <linearGradient id="ember-fill" x1="228" y1="170" x2="312" y2="346" gradientUnits="userSpaceOnUse">
      <stop stop-color="#FFD38D"/>
      <stop offset="0.4" stop-color="#FF9452"/>
      <stop offset="1" stop-color="#D5482D"/>
    </linearGradient>
    <filter id="soft-shadow" x="60" y="48" width="392" height="416" filterUnits="userSpaceOnUse" color-interpolation-filters="sRGB">
      <feFlood flood-opacity="0" result="BackgroundImageFix"/>
      <feColorMatrix in="SourceAlpha" type="matrix" values="0 0 0 0 0 0 0 0 0 0 0 0 0 0 0 0 0 0 127 0" result="hardAlpha"/>
      <feOffset dy="12"/>
      <feGaussianBlur stdDeviation="18"/>
      <feColorMatrix type="matrix" values="0 0 0 0 0.0862745 0 0 0 0 0.027451 0 0 0 0 0.027451 0 0 0 0.42 0"/>
      <feBlend mode="normal" in2="BackgroundImageFix" result="effect1_dropShadow_0_1"/>
      <feBlend mode="normal" in="SourceGraphic" in2="effect1_dropShadow_0_1" result="shape"/>
    </filter>
  </defs>

  <rect x="32" y="32" width="448" height="448" rx="136" fill="url(#ember-bg)"/>
  <circle cx="256" cy="304" r="146" fill="url(#ember-glow)"/>

  <g filter="url(#soft-shadow)">
    <path
      d="M256 86C330.006 86 390 145.994 390 220V294C390 382.92 327.73 434.28 256 438C184.27 434.28 122 382.92 122 294V220C122 145.994 181.994 86 256 86Z"
      stroke="url(#chamber-stroke)"
      stroke-width="18"
      stroke-linejoin="round"
    />
    <path
      d="M256 136C304.601 136 344 175.399 344 224V286C344 342.042 304.238 379.242 256 382C207.762 379.242 168 342.042 168 286V224C168 175.399 207.399 136 256 136Z"
      stroke="rgba(255,220,179,0.26)"
      stroke-width="12"
      stroke-linejoin="round"
    />
    <path
      d="M255.354 161C277.925 188.256 290.648 213.502 289.793 236.74C306.798 228.392 322.281 231.186 336.244 245.124C351.548 260.401 359.2 279.341 359.2 301.945C359.2 326.191 350.913 346.906 334.34 364.089C317.855 381.184 297.285 390.616 272.63 392.384C245.526 394.327 222.171 386.892 202.564 370.079C183.045 353.179 173.284 331.048 173.284 303.687C173.284 286.156 177.278 270.591 185.267 256.99C193.255 243.3 204.703 232.012 219.611 223.124C218.581 209.258 220.968 196.855 226.773 185.915C232.577 174.975 242.104 166.67 255.354 161Z"
      fill="url(#ember-fill)"
    />
    <path
      d="M252.9 215.381C263.804 229.977 268.633 244.013 267.387 257.489C278.199 253.074 287.55 255.669 295.441 265.273C303.51 275.055 307.544 286.516 307.544 299.658C307.544 313.955 302.735 325.944 293.117 335.626C283.587 345.219 271.608 350.296 257.181 350.856C240.072 351.521 225.821 346.006 214.428 334.311C203.122 322.527 197.469 308.479 197.469 292.167C197.469 281.529 199.93 272.122 204.852 263.945C209.862 255.768 217.51 249.058 227.797 243.816C228.619 233.32 231.351 223.842 235.993 215.381C240.723 206.831 246.359 202.553 252.9 202.553C259.529 202.553 259.529 206.829 252.9 215.381Z"
      fill="#130D10"
      fill-opacity="0.18"
    />
    <path
      d="M248.8 199C258.943 211.164 264.327 223.922 264.952 237.274C272.766 232.869 280.588 233.779 288.42 240.006C296.341 246.143 300.301 255.506 300.301 268.096C300.301 281.836 295.781 293.641 286.742 303.509C277.791 313.287 267.111 319.045 254.702 320.782C241.74 322.608 230.561 319.73 221.164 312.148C211.856 304.475 207.202 294.397 207.202 281.915C207.202 273.827 209.187 266.752 213.156 260.689C217.213 254.625 222.919 249.537 230.273 245.424C229.929 235.397 232.055 226.623 236.65 219.102C241.334 211.49 245.384 204.789 248.8 199Z"
      fill="url(#ember-fill)"
    />
    <path
      d="M330 145L346 171"
      stroke="#FFDFA9"
      stroke-width="12"
      stroke-linecap="round"
      opacity="0.7"
    />
    <path
      d="M176 161L191 183"
      stroke="#FF8E5A"
      stroke-width="10"
      stroke-linecap="round"
      opacity="0.65"
    />
  </g>
</svg>
