<svg width="512" height="512" viewBox="0 0 512 512" fill="none" xmlns="http://www.w3.org/2000/svg">
  <rect width="512" height="512" rx="120" fill="#0F172A" />
  <path d="M128 146C128 131.641 139.641 120 154 120H274C331.438 120 378 166.562 378 224C378 281.438 331.438 328 274 328H200V392H154C139.641 392 128 380.359 128 366V146Z" fill="#14B8A6" />
  <path d="M200 170V278H272C301.823 278 326 253.823 326 224C326 194.177 301.823 170 272 170H200Z" fill="#0F172A" />
  <path d="M286 202L356 120H408L321 230L416 392H361L286 262V202Z" fill="#E2E8F0" />
</svg>
